<svg xmlns="http://www.w3.org/2000/svg" xmlns:xlink="http://www.w3.org/1999/xlink" id="Capa_1" x="0px" y="0px" viewBox="0 0 490.667 490.667" style="enable-background:new 0 0 490.667 490.667;" xml:space="preserve">
<path style="fill:#1E88E5;" d="M475.094,443.029c-10.021,9.996-23.605,15.599-37.76,15.573h-384  c-14.155,0.025-27.739-5.577-37.76-15.573l174.08-174.08l29.44,21.333c15.596,11.522,36.884,11.522,52.48,0l29.44-21.333  L475.094,443.029z"></path>
<g>
	<path style="fill:#2196F3;" d="M10.027,139.456l179.627,129.493l-174.08,174.08C5.578,433.008-0.025,419.423,0,405.269V170.602   C-0.047,159.419,3.464,148.511,10.027,139.456z"></path>
	<path style="fill:#2196F3;" d="M490.667,170.602v234.667c0.025,14.155-5.577,27.739-15.573,37.76l-174.08-174.08l179.413-129.707   C487.088,148.341,490.674,159.326,490.667,170.602z"></path>
</g>
<path style="fill:#64B5F6;" d="M437.334,117.269h-160v96c0,17.673-14.327,32-32,32s-32-14.327-32-32v-96h-160  c-17.177-0.054-33.316,8.214-43.307,22.187l179.627,129.493l29.44,21.333c15.596,11.522,36.884,11.522,52.48,0l29.44-21.333  l179.413-129.707C470.401,125.45,454.385,117.284,437.334,117.269z"></path>
<path style="fill:#455A64;" d="M295.552,77.717L252.886,35.05c-1.362-1.294-3.051-2.194-4.885-2.603  c-0.407-0.105-0.82-0.183-1.237-0.235c-1.842-0.312-3.735-0.128-5.483,0.533l0,0h-0.107c-1.24,0.495-2.376,1.219-3.349,2.133  l-42.667,42.667c-4.237,4.093-4.355,10.845-0.262,15.083c4.093,4.237,10.845,4.355,15.083,0.262  c0.089-0.086,0.176-0.173,0.262-0.262l24.427-24.277v144.917c0,5.891,4.776,10.667,10.667,10.667S256,219.16,256,213.269V68.352  L280.448,92.8c4.093,4.237,10.845,4.355,15.083,0.262c4.237-4.093,4.355-10.845,0.262-15.083c-0.086-0.089-0.173-0.176-0.262-0.262  H295.552z"></path>
<g>
</g>
<g>
</g>
<g>
</g>
<g>
</g>
<g>
</g>
<g>
</g>
<g>
</g>
<g>
</g>
<g>
</g>
<g>
</g>
<g>
</g>
<g>
</g>
<g>
</g>
<g>
</g>
<g>
</g>
</svg>