<svg xmlns="http://www.w3.org/2000/svg" xmlns:xlink="http://www.w3.org/1999/xlink" id="Capa_1" x="0px" y="0px" viewBox="0 0 490.667 490.667" style="enable-background:new 0 0 490.667 490.667;" xml:space="preserve">
<path style="fill:#1E88E5;" d="M475.094,443.094c-10.021,9.996-23.605,15.599-37.76,15.573h-384  c-14.155,0.025-27.739-5.577-37.76-15.573l174.08-174.08l29.44,21.333c15.596,11.522,36.884,11.522,52.48,0l29.44-21.333  L475.094,443.094z"></path>
<g>
	<path style="fill:#2196F3;" d="M10.027,139.52l179.627,129.493l-174.08,174.08C5.578,433.072-0.025,419.488,0,405.334V170.667   C-0.047,159.484,3.464,148.575,10.027,139.52z"></path>
	<path style="fill:#2196F3;" d="M490.667,170.667v234.667c0.025,14.155-5.577,27.739-15.573,37.76l-174.08-174.08l179.413-129.707   C487.088,148.406,490.674,159.391,490.667,170.667z"></path>
</g>
<path style="fill:#64B5F6;" d="M437.334,117.334h-160v23.168c16.659-5.9,34.947,2.823,40.846,19.482  c4.119,11.632,1.183,24.595-7.545,33.318l-42.667,42.667c-2.992,3-6.553,5.372-10.475,6.976c-3.861,1.575-7.99,2.386-12.16,2.389  c-4.156-0.002-8.272-0.814-12.117-2.389l-4.096-2.005c-2.333-1.383-4.483-3.053-6.4-4.971l-42.667-42.667  c-12.495-12.499-12.492-32.76,0.007-45.255c8.714-8.711,21.654-11.645,33.273-7.545v-23.168h-160  c-17.177-0.054-33.316,8.214-43.307,22.187l179.627,129.493l29.44,21.333c15.596,11.522,36.884,11.522,52.48,0l29.44-21.333  l179.413-129.707C470.401,125.515,454.385,117.348,437.334,117.334z"></path>
<path style="fill:#455A64;" d="M295.552,163.115c-4.165-4.164-10.917-4.164-15.083,0L256,187.584V42.667  C256,36.776,251.225,32,245.334,32s-10.667,4.776-10.667,10.667v144.917l-24.448-24.469c-4.237-4.092-10.99-3.975-15.083,0.262  c-3.992,4.134-3.992,10.687,0,14.82l42.667,42.667c0.973,0.914,2.109,1.638,3.349,2.133l0,0l0,0  c3.977,1.63,8.544,0.713,11.584-2.325l42.667-42.667C299.483,173.904,299.549,167.298,295.552,163.115z"></path>
<g>
</g>
<g>
</g>
<g>
</g>
<g>
</g>
<g>
</g>
<g>
</g>
<g>
</g>
<g>
</g>
<g>
</g>
<g>
</g>
<g>
</g>
<g>
</g>
<g>
</g>
<g>
</g>
<g>
</g>
</svg>